<?xml version="1.0" standalone="no"?>
<!DOCTYPE svg PUBLIC "-//W3C//DTD SVG 20010904//EN"
 "http://www.w3.org/TR/2001/REC-SVG-20010904/DTD/svg10.dtd">
<svg version="1.0" xmlns="http://www.w3.org/2000/svg"
 width="256.000000pt" height="256.000000pt" viewBox="0 0 256.000000 256.000000"
 preserveAspectRatio="xMidYMid meet">
<metadata>
Created by potrace 1.14, written by Peter Selinger 2001-2017
</metadata>
<g transform="translate(0.000000,256.000000) scale(0.100000,-0.100000)"
fill="#000000" stroke="none">
<path d="M1217 2554 c-1 -1 -33 -4 -72 -7 -38 -3 -90 -10 -115 -16 -25 -5 -60
-13 -78 -16 -18 -3 -41 -9 -50 -14 -9 -5 -51 -22 -92 -37 -147 -57 -310 -163
-426 -278 -59 -59 -190 -225 -202 -256 -3 -8 -8 -17 -11 -20 -13 -11 -66 -129
-97 -217 -37 -104 -52 -175 -60 -283 -3 -41 -7 -80 -9 -87 -2 -6 2 -16 8 -22
14 -11 201 -21 214 -12 5 3 9 17 9 31 1 29 12 122 19 165 11 63 59 202 88 255
16 30 37 68 46 85 112 208 380 407 621 461 36 8 72 17 80 21 8 3 20 7 25 8 6
2 22 6 38 10 24 6 27 4 28 -16 1 -13 3 -467 4 -1009 2 -542 4 -990 4 -996 1
-15 165 -24 178 -10 3 3 7 457 8 1008 1 552 3 1007 3 1011 1 5 6 6 11 3 5 -3
26 -8 47 -11 22 -2 50 -7 64 -10 62 -13 71 -15 88 -19 76 -18 200 -77 302
-145 67 -44 240 -214 240 -235 0 -3 17 -31 38 -63 21 -32 51 -87 67 -123 51
-117 72 -223 84 -432 1 -26 64 -24 89 2 15 16 33 21 80 22 35 1 62 7 63 12 2
22 -3 109 -7 130 -2 11 -6 39 -9 61 -3 22 -10 53 -15 70 -5 16 -16 50 -24 75
-35 112 -129 315 -157 340 -3 3 -19 25 -36 50 -17 25 -64 79 -104 121 -248
254 -550 385 -907 393 -40 1 -74 1 -75 0z"/>
<path d="M1012 2174 c-34 -11 -73 -26 -86 -32 l-23 -10 1 -631 c1 -347 -2
-631 -6 -631 -3 0 -40 47 -81 106 l-75 105 -20 -53 c-11 -29 -25 -71 -32 -93
-7 -22 -15 -44 -19 -50 -6 -10 -7 -16 -10 -35 -2 -17 -21 -11 -27 8 -3 9 -17
44 -30 77 -21 54 -39 115 -50 170 -5 25 -5 201 0 235 2 14 9 45 16 70 7 25 13
52 15 60 16 85 144 292 215 347 12 9 15 39 16 142 2 150 8 145 -96 68 -80 -60
-146 -124 -196 -192 -24 -33 -48 -65 -53 -71 -24 -29 -91 -188 -110 -259 -28
-109 -37 -176 -35 -265 3 -101 14 -169 45 -275 40 -132 124 -276 220 -375 59
-61 108 -100 124 -100 7 0 26 40 45 95 18 52 37 92 42 89 4 -3 32 -40 60 -82
28 -42 55 -78 60 -80 4 -2 8 -10 8 -18 0 -8 3 -14 8 -14 4 0 12 -9 17 -19 38
-76 116 -164 131 -149 9 10 8 1867 -1 1875 -6 5 -37 -1 -73 -13z"/>
<path d="M1468 2178 c-2 -7 -3 -49 -2 -93 1 -44 3 -459 4 -922 1 -464 5 -845
9 -847 8 -5 151 41 167 55 7 6 11 99 11 298 0 158 3 292 6 298 3 5 102 9 244
8 131 -1 245 2 255 7 9 4 27 38 39 75 27 79 30 101 15 106 -6 2 -134 3 -283 3
-150 -1 -273 1 -274 4 -1 7 -1 681 0 702 1 15 4 14 25 -5 13 -12 43 -38 67
-59 88 -73 125 -115 179 -200 46 -74 78 -166 81 -231 4 -77 12 -83 120 -82
l94 1 -1 50 c-2 131 -55 284 -151 437 -32 51 -48 71 -119 142 -115 117 -235
193 -378 239 -89 29 -102 31 -108 14z"/>
<path d="M115 1209 c-27 -16 -60 -33 -72 -38 -23 -10 -38 -44 -28 -61 3 -5 32
-17 63 -26 31 -9 61 -20 65 -24 4 -4 -13 -24 -38 -44 -97 -80 -85 -100 68
-110 32 -2 60 -6 63 -9 3 -3 -29 -21 -70 -41 -69 -33 -74 -38 -67 -59 9 -22
25 -25 68 -12 18 6 23 1 34 -29 7 -20 17 -36 21 -36 5 0 4 -9 -2 -20 -6 -11
-17 -20 -26 -20 -20 0 -28 -24 -15 -48 11 -21 26 -23 51 -7 8 5 41 22 73 37
31 15 57 31 57 35 0 5 -7 19 -16 31 -15 21 -18 22 -38 8 -27 -17 -35 -12 -58
32 -24 45 -23 51 12 63 33 12 38 30 16 49 -8 6 -20 26 -25 43 -10 30 -15 33
-57 34 -26 2 -49 5 -53 8 -8 8 38 43 66 51 32 9 38 32 18 77 -4 11 -18 17 -39
17 -17 1 -42 7 -55 14 -24 14 -24 14 22 34 49 22 54 30 37 63 -13 24 -15 24
-75 -12z"/>
<path d="M2388 1226 c-36 -17 -76 -110 -83 -193 -1 -12 -6 -28 -12 -35 -15
-18 -63 -128 -56 -128 3 0 1 -6 -5 -12 -5 -7 -13 -28 -17 -46 -6 -31 -70 -134
-87 -140 -4 -2 -8 -10 -8 -17 0 -15 -196 -215 -211 -215 -23 0 -4 -30 54 -86
72 -69 90 -78 120 -63 44 24 47 32 20 61 l-26 27 38 34 c32 29 37 40 33 66 -4
25 -1 31 13 31 10 0 21 -4 24 -10 11 -17 71 -11 97 10 31 24 86 108 88 135 5
46 -2 66 -32 94 -37 35 -28 38 44 15 42 -14 51 -15 59 -3 14 22 10 37 -11 44
-11 3 -20 14 -20 23 0 26 38 82 55 82 16 0 55 55 55 78 0 9 -8 9 -36 -3 -45
-19 -41 -19 -48 9 -3 14 -15 28 -26 31 -22 7 -27 38 -7 52 13 10 73 10 84 0 9
-9 43 -9 44 1 0 4 2 15 4 25 2 10 -7 24 -21 33 -13 9 -24 20 -24 25 0 18 -45
78 -62 82 -9 3 -27 0 -40 -7z m-25 -381 c-8 -22 -22 -18 -16 5 3 11 9 17 14
15 4 -3 6 -12 2 -20z m-69 -163 c22 -17 23 -35 4 -57 -5 -5 -18 -25 -29 -43
-14 -24 -26 -32 -41 -30 -47 7 -46 60 4 123 23 30 33 31 62 7z m-184 -191 c0
-16 -61 -71 -72 -65 -5 4 5 21 24 39 34 34 48 42 48 26z"/>
<path d="M417 594 c-1 -1 -36 -5 -77 -9 -89 -8 -111 -12 -119 -21 -7 -7 50
-55 58 -49 3 1 34 6 68 9 48 5 62 3 59 -6 -3 -7 -7 -26 -11 -42 l-6 -29 -34
33 c-24 24 -38 30 -54 25 -12 -3 -21 -10 -21 -13 0 -4 21 -30 46 -57 25 -28
54 -61 65 -75 16 -21 20 -23 28 -10 5 8 10 20 11 25 1 6 7 21 12 35 5 14 12
35 14 47 2 12 9 35 16 50 12 31 11 63 -3 77 -8 9 -45 16 -52 10z"/>
<path d="M510 478 l-25 -9 28 -24 c15 -13 27 -27 27 -31 0 -3 -16 -28 -35 -54
-40 -54 -40 -56 -21 -76 23 -22 31 -18 67 36 37 55 46 58 75 32 10 -9 29 -16
42 -14 22 3 30 -12 12 -23 -17 -10 -11 -25 10 -25 10 0 23 7 28 16 5 9 13 15
18 14 20 -3 13 29 -8 36 -20 6 -134 87 -148 105 -14 18 -47 26 -70 17z"/>
<path d="M1815 372 c-16 -9 -32 -19 -35 -23 -3 -3 -21 -13 -40 -22 -58 -28
-72 -44 -77 -85 -5 -47 24 -83 60 -75 29 6 88 33 106 46 19 16 43 18 39 4 -2
-7 -32 -27 -67 -45 -68 -34 -94 -60 -82 -81 7 -10 18 -8 52 10 24 13 46 23 49
24 16 1 101 58 108 73 14 27 -1 66 -30 76 -21 7 -39 2 -96 -27 -62 -32 -82
-37 -82 -17 0 3 27 19 60 34 65 31 76 43 81 90 5 36 -7 41 -46 18z"/>
<path d="M740 290 c-15 -15 -19 -27 -13 -48 8 -33 19 -42 94 -71 55 -21 69
-34 52 -44 -5 -3 -29 5 -55 18 -26 12 -49 21 -51 19 -2 -3 -10 2 -17 10 -11
14 -15 14 -41 0 -26 -13 -28 -17 -15 -29 8 -8 17 -15 20 -15 3 0 35 -13 71
-30 36 -16 77 -30 90 -30 33 0 65 33 60 61 -7 33 -21 45 -90 75 -62 26 -82 44
-50 44 8 0 23 -4 33 -9 75 -38 102 -43 127 -25 10 8 17 16 14 18 -11 12 -173
76 -190 76 -10 0 -28 -9 -39 -20z"/>
<path d="M1581 241 c-12 -8 -12 -31 2 -76 2 -5 9 -30 16 -55 14 -50 24 -60 52
-53 21 6 24 22 9 67 -5 17 -16 51 -24 76 -14 46 -30 57 -55 41z"/>
<path d="M1508 223 c-24 -4 -26 -7 -18 -34 6 -21 5 -31 -3 -33 -96 -25 -97
-25 -105 7 l-8 30 -94 2 c-52 1 -113 5 -136 9 -33 5 -44 3 -58 -13 -23 -25
-15 -38 24 -39 43 -1 48 -7 41 -49 -6 -35 -7 -47 -3 -80 2 -14 51 -18 53 -5 1
4 2 23 4 42 8 93 8 92 36 86 15 -3 35 1 45 9 33 25 34 23 48 -80 2 -16 5 -37
5 -46 1 -19 33 -30 51 -19 8 5 10 18 6 33 -8 34 4 42 79 49 27 3 30 0 33 -30
3 -28 7 -32 33 -32 31 0 31 0 25 48 -3 26 -9 63 -12 82 -3 19 -6 43 -6 53 1 9
-2 16 -6 16 -4 -1 -19 -4 -34 -6z"/>
</g>
</svg>
