<svg version="1.2" xmlns="http://www.w3.org/2000/svg" viewBox="0 0 1024 1024" width="80" height="80">
	<title>exclamation-mark-2-svg</title>
	<style>
		.s0 { fill: #ffffff } 
	</style>
	<path id="Layer" fill-rule="evenodd" class="s0" d="m511 890.4c-210.6 0-381.3-170.7-381.3-381.3 0-210.6 170.7-381.4 381.3-381.4 210.6 0 381.3 170.8 381.3 381.4 0 210.6-170.7 381.3-381.3 381.3zm58.3-567.1c0-29.2-30-52.9-59.2-52.9-29.2 0-58.3 23.7-58.3 52.9l15.3 220.4c0 29.2 13.5 52.9 42.6 52.9 29.3 0 44.2-23.7 44.2-52.9zm-57.4 301.8c-33 0-59.7 26.8-59.7 59.8 0 33 26.7 59.8 59.7 59.8 33 0 59.9-26.8 59.9-59.8 0-33-26.9-59.8-59.9-59.8z"/>
</svg>