<svg version="1.2" xmlns="http://www.w3.org/2000/svg" viewBox="0 0 60 60" width="60" height="60">
	<title>stopwatch-svgrepo-com (1)-svg</title>
	<style>
		.s0 { fill: #ffffff } 
	</style>
	<g id="Layer">
		<path id="Layer" class="s0" d="m30 0c-0.6 0-1 0.4-1 1v13.3c0 0.5 0.4 1 1 1 0.6 0 1-0.5 1-1v-12.3c15 0.5 27 12.9 27 28 0 15.4-12.6 28-28 28-15.4 0-28-12.6-28-28 0-7.5 2.9-14.5 8.2-19.8 0.4-0.4 0.4-1 0-1.4-0.4-0.4-1.1-0.4-1.4 0-5.7 5.7-8.8 13.2-8.8 21.2 0 16.5 13.5 30 30 30 16.5 0 30-13.5 30-30 0-16.5-13.5-30-30-30z"/>
		<path id="Layer" class="s0" d="m28.6 33.5c0.6 1 1.7 1.5 2.8 1.5 1 0 1.9-0.4 2.6-1 0.7-0.8 1.1-1.8 1-2.8-0.1-1.1-0.6-2-1.5-2.6l-12.9-9.4c-0.4-0.3-1-0.3-1.3 0.1-0.4 0.3-0.4 0.9-0.1 1.3z"/>
	</g>
</svg>