<svg version="1.2" xmlns="http://www.w3.org/2000/svg" viewBox="0 0 1024 1024" width="64" height="64">
	<title>trx-mark-svg</title>
	<style>
		.s0 { fill: #ffffff } 
	</style>
	<path id="Layer" class="s0" d="m513 26.1c-33.8 0-67 3.6-99.8 10.3-22 4.6-36.4 26.1-31.8 48.6 4.6 22 26.2 36.3 48.7 31.7 27.1-5.6 55.3-8.7 82.9-8.7 223.3 0 404.5 181.3 404.5 404.5 0 223.2-181.2 404.5-404.5 404.5-223.2 0-404.5-181.3-404.5-404.5 0-80.9 24.1-159.2 69.2-226.3 13.3-20 28.6-38.4 45.5-55.8 15.9-16.4 15.4-42-1-57.9-16.4-15.8-42-15.3-57.8 1.1-20 20.4-38.4 43-54.8 67-54.3 80.4-83 174.6-83 271.9 0 268.3 218.1 486.4 486.4 486.4 268.3 0 486.4-218.1 486.4-486.4 0-268.3-218.1-486.4-486.4-486.4z"/>
	<path id="Layer" class="s0" d="m218.1 444.9c0 22.6 18.4 41 41 41h508.4c16.4 0 31.7-9.7 37.9-25.1 6.1-15.4 3-32.8-8.7-44.5l-132.1-132.1c-15.9-15.9-42-15.9-57.9 0-15.9 15.8-15.9 41.9 0 57.8l62.5 62.5h-409.6c-23.1-0.5-41.5 17.9-41.5 40.4zm590.3 135.7c0-22.5-18.4-41-40.9-41h-508.4c-16.4 0-31.8 9.8-37.9 25.1-6.2 15.4-3.1 32.8 8.7 44.6l132.1 132.1c8.2 8.2 18.4 11.8 29.2 11.8 10.7 0 21-4.1 29.2-11.8 15.8-15.9 15.8-42 0-57.9l-62.5-62.4h409.6c22.5 0.5 40.9-18 40.9-40.5z"/>
</svg>